<mxfile host="app.diagrams.net" modified="2020-12-15T02:13:26.446Z" agent="5.0 (Windows NT 10.0; Win64; x64) AppleWebKit/537.36 (KHTML, like Gecko) Chrome/87.0.4280.88 Safari/537.36" etag="2tVXb5xzfLwxnIyg8j1q" version="14.0.1" type="github">
  <diagram id="ih2-uyS2JB7W7zuyMLsl" name="Page-1">
    <mxGraphModel dx="782" dy="469" grid="1" gridSize="10" guides="1" tooltips="1" connect="1" arrows="1" fold="1" page="1" pageScale="1" pageWidth="827" pageHeight="1169" math="0" shadow="0">
      <root>
        <mxCell id="0" />
        <mxCell id="1" parent="0" />
        <mxCell id="sw-TKwQO3zjJXZ8bYA9Y-1" value="Acordar às 7h" style="rounded=1;whiteSpace=wrap;html=1;" vertex="1" parent="1">
          <mxGeometry x="320" y="20" width="120" height="40" as="geometry" />
        </mxCell>
        <mxCell id="sw-TKwQO3zjJXZ8bYA9Y-2" value="" style="endArrow=none;html=1;entryX=0.5;entryY=1;entryDx=0;entryDy=0;" edge="1" parent="1" target="sw-TKwQO3zjJXZ8bYA9Y-1">
          <mxGeometry width="50" height="50" relative="1" as="geometry">
            <mxPoint x="380" y="130" as="sourcePoint" />
            <mxPoint x="430" y="220" as="targetPoint" />
          </mxGeometry>
        </mxCell>
        <mxCell id="sw-TKwQO3zjJXZ8bYA9Y-3" value="É dia de semana?" style="rounded=1;whiteSpace=wrap;html=1;" vertex="1" parent="1">
          <mxGeometry x="320" y="100" width="120" height="50" as="geometry" />
        </mxCell>
        <mxCell id="sw-TKwQO3zjJXZ8bYA9Y-4" value="" style="endArrow=none;html=1;" edge="1" parent="1">
          <mxGeometry width="50" height="50" relative="1" as="geometry">
            <mxPoint x="270" y="200" as="sourcePoint" />
            <mxPoint x="320" y="150" as="targetPoint" />
          </mxGeometry>
        </mxCell>
        <mxCell id="sw-TKwQO3zjJXZ8bYA9Y-5" value="Sim" style="rounded=1;whiteSpace=wrap;html=1;" vertex="1" parent="1">
          <mxGeometry x="240" y="170" width="80" height="30" as="geometry" />
        </mxCell>
        <mxCell id="sw-TKwQO3zjJXZ8bYA9Y-6" value="Não" style="rounded=1;whiteSpace=wrap;html=1;" vertex="1" parent="1">
          <mxGeometry x="450" y="170" width="90" height="30" as="geometry" />
        </mxCell>
        <mxCell id="sw-TKwQO3zjJXZ8bYA9Y-7" value="" style="endArrow=none;html=1;entryX=1;entryY=1;entryDx=0;entryDy=0;" edge="1" parent="1" target="sw-TKwQO3zjJXZ8bYA9Y-3">
          <mxGeometry width="50" height="50" relative="1" as="geometry">
            <mxPoint x="495" y="170" as="sourcePoint" />
            <mxPoint x="590" y="120" as="targetPoint" />
          </mxGeometry>
        </mxCell>
        <mxCell id="sw-TKwQO3zjJXZ8bYA9Y-12" value="" style="endArrow=none;html=1;entryX=0.5;entryY=1;entryDx=0;entryDy=0;" edge="1" parent="1" target="sw-TKwQO3zjJXZ8bYA9Y-5">
          <mxGeometry width="50" height="50" relative="1" as="geometry">
            <mxPoint x="230" y="250" as="sourcePoint" />
            <mxPoint x="430" y="220" as="targetPoint" />
          </mxGeometry>
        </mxCell>
        <mxCell id="sw-TKwQO3zjJXZ8bYA9Y-13" value="Tomar banho" style="rounded=1;whiteSpace=wrap;html=1;" vertex="1" parent="1">
          <mxGeometry x="190" y="230" width="90" height="40" as="geometry" />
        </mxCell>
        <mxCell id="sw-TKwQO3zjJXZ8bYA9Y-14" value="Arrumar a casa" style="rounded=1;whiteSpace=wrap;html=1;" vertex="1" parent="1">
          <mxGeometry x="500" y="230" width="90" height="40" as="geometry" />
        </mxCell>
        <mxCell id="sw-TKwQO3zjJXZ8bYA9Y-15" value="" style="endArrow=none;html=1;exitX=0.5;exitY=1;exitDx=0;exitDy=0;entryX=0.5;entryY=0;entryDx=0;entryDy=0;" edge="1" parent="1" source="sw-TKwQO3zjJXZ8bYA9Y-6" target="sw-TKwQO3zjJXZ8bYA9Y-14">
          <mxGeometry width="50" height="50" relative="1" as="geometry">
            <mxPoint x="380" y="270" as="sourcePoint" />
            <mxPoint x="430" y="220" as="targetPoint" />
            <Array as="points" />
          </mxGeometry>
        </mxCell>
        <mxCell id="sw-TKwQO3zjJXZ8bYA9Y-17" value="" style="endArrow=none;html=1;entryX=0.5;entryY=1;entryDx=0;entryDy=0;" edge="1" parent="1" target="sw-TKwQO3zjJXZ8bYA9Y-13">
          <mxGeometry width="50" height="50" relative="1" as="geometry">
            <mxPoint x="200" y="320" as="sourcePoint" />
            <mxPoint x="430" y="210" as="targetPoint" />
          </mxGeometry>
        </mxCell>
        <mxCell id="sw-TKwQO3zjJXZ8bYA9Y-18" value="" style="endArrow=none;html=1;entryX=0.5;entryY=1;entryDx=0;entryDy=0;" edge="1" parent="1" target="sw-TKwQO3zjJXZ8bYA9Y-14">
          <mxGeometry width="50" height="50" relative="1" as="geometry">
            <mxPoint x="590" y="320" as="sourcePoint" />
            <mxPoint x="430" y="210" as="targetPoint" />
          </mxGeometry>
        </mxCell>
        <mxCell id="sw-TKwQO3zjJXZ8bYA9Y-71" style="edgeStyle=orthogonalEdgeStyle;rounded=0;orthogonalLoop=1;jettySize=auto;html=1;entryX=0.5;entryY=0;entryDx=0;entryDy=0;" edge="1" parent="1" source="sw-TKwQO3zjJXZ8bYA9Y-21" target="sw-TKwQO3zjJXZ8bYA9Y-26">
          <mxGeometry relative="1" as="geometry">
            <Array as="points">
              <mxPoint x="60" y="320" />
            </Array>
          </mxGeometry>
        </mxCell>
        <mxCell id="sw-TKwQO3zjJXZ8bYA9Y-72" style="edgeStyle=orthogonalEdgeStyle;rounded=0;orthogonalLoop=1;jettySize=auto;html=1;entryX=0.5;entryY=0;entryDx=0;entryDy=0;" edge="1" parent="1" source="sw-TKwQO3zjJXZ8bYA9Y-21" target="sw-TKwQO3zjJXZ8bYA9Y-29">
          <mxGeometry relative="1" as="geometry">
            <mxPoint x="280" y="340" as="targetPoint" />
            <Array as="points">
              <mxPoint x="281" y="320" />
              <mxPoint x="281" y="360" />
              <mxPoint x="280" y="360" />
              <mxPoint x="280" y="340" />
            </Array>
          </mxGeometry>
        </mxCell>
        <mxCell id="sw-TKwQO3zjJXZ8bYA9Y-21" value="Verificar a previsão do tempo" style="rounded=1;whiteSpace=wrap;html=1;" vertex="1" parent="1">
          <mxGeometry x="120" y="300" width="110" height="40" as="geometry" />
        </mxCell>
        <mxCell id="sw-TKwQO3zjJXZ8bYA9Y-31" style="edgeStyle=orthogonalEdgeStyle;rounded=0;orthogonalLoop=1;jettySize=auto;html=1;exitX=0.5;exitY=1;exitDx=0;exitDy=0;entryX=0.5;entryY=0;entryDx=0;entryDy=0;" edge="1" parent="1" source="sw-TKwQO3zjJXZ8bYA9Y-26" target="sw-TKwQO3zjJXZ8bYA9Y-33">
          <mxGeometry relative="1" as="geometry">
            <mxPoint x="200" y="450" as="targetPoint" />
            <Array as="points">
              <mxPoint x="60" y="425" />
              <mxPoint x="160" y="425" />
            </Array>
          </mxGeometry>
        </mxCell>
        <mxCell id="sw-TKwQO3zjJXZ8bYA9Y-26" value="Levar Guarda-chuva" style="rounded=1;whiteSpace=wrap;html=1;" vertex="1" parent="1">
          <mxGeometry y="360" width="120" height="40" as="geometry" />
        </mxCell>
        <mxCell id="sw-TKwQO3zjJXZ8bYA9Y-32" style="edgeStyle=orthogonalEdgeStyle;rounded=0;orthogonalLoop=1;jettySize=auto;html=1;exitX=0.5;exitY=1;exitDx=0;exitDy=0;" edge="1" parent="1" source="sw-TKwQO3zjJXZ8bYA9Y-29" target="sw-TKwQO3zjJXZ8bYA9Y-33">
          <mxGeometry relative="1" as="geometry">
            <mxPoint x="200" y="450" as="targetPoint" />
          </mxGeometry>
        </mxCell>
        <mxCell id="sw-TKwQO3zjJXZ8bYA9Y-29" value="Não levar guarda-chuva" style="rounded=1;whiteSpace=wrap;html=1;" vertex="1" parent="1">
          <mxGeometry x="224.38" y="360" width="112.5" height="40" as="geometry" />
        </mxCell>
        <mxCell id="sw-TKwQO3zjJXZ8bYA9Y-78" style="edgeStyle=orthogonalEdgeStyle;rounded=0;orthogonalLoop=1;jettySize=auto;html=1;exitX=0.5;exitY=1;exitDx=0;exitDy=0;entryX=0.426;entryY=0.025;entryDx=0;entryDy=0;entryPerimeter=0;" edge="1" parent="1" source="sw-TKwQO3zjJXZ8bYA9Y-33" target="sw-TKwQO3zjJXZ8bYA9Y-38">
          <mxGeometry relative="1" as="geometry">
            <mxPoint x="160" y="510" as="targetPoint" />
            <Array as="points" />
          </mxGeometry>
        </mxCell>
        <mxCell id="sw-TKwQO3zjJXZ8bYA9Y-33" value="Ir para o trabalho&amp;nbsp;" style="rounded=1;whiteSpace=wrap;html=1;" vertex="1" parent="1">
          <mxGeometry x="110" y="450" width="100" height="40" as="geometry" />
        </mxCell>
        <mxCell id="sw-TKwQO3zjJXZ8bYA9Y-42" style="edgeStyle=orthogonalEdgeStyle;rounded=0;orthogonalLoop=1;jettySize=auto;html=1;entryX=0.5;entryY=0;entryDx=0;entryDy=0;" edge="1" parent="1" source="sw-TKwQO3zjJXZ8bYA9Y-38" target="sw-TKwQO3zjJXZ8bYA9Y-41">
          <mxGeometry relative="1" as="geometry" />
        </mxCell>
        <mxCell id="sw-TKwQO3zjJXZ8bYA9Y-92" style="edgeStyle=orthogonalEdgeStyle;rounded=0;orthogonalLoop=1;jettySize=auto;html=1;entryX=0.5;entryY=0;entryDx=0;entryDy=0;" edge="1" parent="1" source="sw-TKwQO3zjJXZ8bYA9Y-38" target="sw-TKwQO3zjJXZ8bYA9Y-40">
          <mxGeometry relative="1" as="geometry">
            <mxPoint x="50" y="550" as="targetPoint" />
            <Array as="points">
              <mxPoint x="50" y="535" />
            </Array>
          </mxGeometry>
        </mxCell>
        <mxCell id="sw-TKwQO3zjJXZ8bYA9Y-38" value="É segunda, quarta ou sexta?" style="rounded=1;whiteSpace=wrap;html=1;" vertex="1" parent="1">
          <mxGeometry x="100" y="515" width="140" height="40" as="geometry" />
        </mxCell>
        <mxCell id="sw-TKwQO3zjJXZ8bYA9Y-70" style="edgeStyle=orthogonalEdgeStyle;rounded=0;orthogonalLoop=1;jettySize=auto;html=1;entryX=0.5;entryY=0.2;entryDx=0;entryDy=0;entryPerimeter=0;" edge="1" parent="1" source="sw-TKwQO3zjJXZ8bYA9Y-39" target="sw-TKwQO3zjJXZ8bYA9Y-69">
          <mxGeometry relative="1" as="geometry" />
        </mxCell>
        <mxCell id="sw-TKwQO3zjJXZ8bYA9Y-80" style="edgeStyle=orthogonalEdgeStyle;rounded=0;orthogonalLoop=1;jettySize=auto;html=1;entryX=0.5;entryY=0;entryDx=0;entryDy=0;" edge="1" parent="1" source="sw-TKwQO3zjJXZ8bYA9Y-39" target="sw-TKwQO3zjJXZ8bYA9Y-69">
          <mxGeometry relative="1" as="geometry" />
        </mxCell>
        <mxCell id="sw-TKwQO3zjJXZ8bYA9Y-39" value="Assistir televisão até a hora do almoço" style="rounded=1;whiteSpace=wrap;html=1;" vertex="1" parent="1">
          <mxGeometry x="530" y="310" width="120" height="60" as="geometry" />
        </mxCell>
        <mxCell id="sw-TKwQO3zjJXZ8bYA9Y-76" style="edgeStyle=orthogonalEdgeStyle;rounded=0;orthogonalLoop=1;jettySize=auto;html=1;" edge="1" parent="1" source="sw-TKwQO3zjJXZ8bYA9Y-40" target="sw-TKwQO3zjJXZ8bYA9Y-45">
          <mxGeometry relative="1" as="geometry" />
        </mxCell>
        <mxCell id="sw-TKwQO3zjJXZ8bYA9Y-40" value="Sim" style="rounded=1;whiteSpace=wrap;html=1;" vertex="1" parent="1">
          <mxGeometry x="10" y="560" width="80" height="40" as="geometry" />
        </mxCell>
        <mxCell id="sw-TKwQO3zjJXZ8bYA9Y-50" style="edgeStyle=orthogonalEdgeStyle;rounded=0;orthogonalLoop=1;jettySize=auto;html=1;entryX=0.5;entryY=0;entryDx=0;entryDy=0;" edge="1" parent="1" source="sw-TKwQO3zjJXZ8bYA9Y-41" target="sw-TKwQO3zjJXZ8bYA9Y-44">
          <mxGeometry relative="1" as="geometry" />
        </mxCell>
        <mxCell id="sw-TKwQO3zjJXZ8bYA9Y-41" value="Não" style="rounded=1;whiteSpace=wrap;html=1;" vertex="1" parent="1">
          <mxGeometry x="260" y="555" width="86.25" height="40" as="geometry" />
        </mxCell>
        <mxCell id="sw-TKwQO3zjJXZ8bYA9Y-53" style="edgeStyle=orthogonalEdgeStyle;rounded=0;orthogonalLoop=1;jettySize=auto;html=1;" edge="1" parent="1" source="sw-TKwQO3zjJXZ8bYA9Y-44" target="sw-TKwQO3zjJXZ8bYA9Y-52">
          <mxGeometry relative="1" as="geometry">
            <Array as="points">
              <mxPoint x="210" y="680" />
            </Array>
          </mxGeometry>
        </mxCell>
        <mxCell id="sw-TKwQO3zjJXZ8bYA9Y-44" value="Comer carne ou salada" style="rounded=1;whiteSpace=wrap;html=1;" vertex="1" parent="1">
          <mxGeometry x="243.13" y="635" width="120" height="50" as="geometry" />
        </mxCell>
        <mxCell id="sw-TKwQO3zjJXZ8bYA9Y-54" style="edgeStyle=orthogonalEdgeStyle;rounded=0;orthogonalLoop=1;jettySize=auto;html=1;entryX=0.5;entryY=0;entryDx=0;entryDy=0;" edge="1" parent="1" source="sw-TKwQO3zjJXZ8bYA9Y-45" target="sw-TKwQO3zjJXZ8bYA9Y-52">
          <mxGeometry relative="1" as="geometry">
            <Array as="points">
              <mxPoint x="210" y="680" />
            </Array>
          </mxGeometry>
        </mxCell>
        <mxCell id="sw-TKwQO3zjJXZ8bYA9Y-45" value="Comer peixe" style="rounded=1;whiteSpace=wrap;html=1;" vertex="1" parent="1">
          <mxGeometry x="5" y="640" width="90" height="40" as="geometry" />
        </mxCell>
        <mxCell id="sw-TKwQO3zjJXZ8bYA9Y-96" style="edgeStyle=orthogonalEdgeStyle;rounded=0;orthogonalLoop=1;jettySize=auto;html=1;" edge="1" parent="1" source="sw-TKwQO3zjJXZ8bYA9Y-52" target="sw-TKwQO3zjJXZ8bYA9Y-94">
          <mxGeometry relative="1" as="geometry" />
        </mxCell>
        <mxCell id="sw-TKwQO3zjJXZ8bYA9Y-52" value="Trabalhar até às 18h" style="rounded=1;whiteSpace=wrap;html=1;" vertex="1" parent="1">
          <mxGeometry x="150" y="750" width="120" height="40" as="geometry" />
        </mxCell>
        <mxCell id="sw-TKwQO3zjJXZ8bYA9Y-83" style="edgeStyle=orthogonalEdgeStyle;rounded=0;orthogonalLoop=1;jettySize=auto;html=1;" edge="1" parent="1" source="sw-TKwQO3zjJXZ8bYA9Y-69">
          <mxGeometry relative="1" as="geometry">
            <mxPoint x="510" y="470" as="targetPoint" />
          </mxGeometry>
        </mxCell>
        <mxCell id="sw-TKwQO3zjJXZ8bYA9Y-85" style="edgeStyle=orthogonalEdgeStyle;rounded=0;orthogonalLoop=1;jettySize=auto;html=1;entryX=0.5;entryY=0;entryDx=0;entryDy=0;" edge="1" parent="1" source="sw-TKwQO3zjJXZ8bYA9Y-69" target="sw-TKwQO3zjJXZ8bYA9Y-84">
          <mxGeometry relative="1" as="geometry" />
        </mxCell>
        <mxCell id="sw-TKwQO3zjJXZ8bYA9Y-69" value="Almoçar carne e salada" style="rounded=1;whiteSpace=wrap;html=1;" vertex="1" parent="1">
          <mxGeometry x="530" y="400" width="110" height="50" as="geometry" />
        </mxCell>
        <mxCell id="sw-TKwQO3zjJXZ8bYA9Y-90" style="edgeStyle=orthogonalEdgeStyle;rounded=0;orthogonalLoop=1;jettySize=auto;html=1;" edge="1" parent="1" source="sw-TKwQO3zjJXZ8bYA9Y-82">
          <mxGeometry relative="1" as="geometry">
            <mxPoint x="450" y="530" as="targetPoint" />
          </mxGeometry>
        </mxCell>
        <mxCell id="sw-TKwQO3zjJXZ8bYA9Y-82" value="É sábado?" style="rounded=1;whiteSpace=wrap;html=1;" vertex="1" parent="1">
          <mxGeometry x="470" y="470" width="90" height="40" as="geometry" />
        </mxCell>
        <mxCell id="sw-TKwQO3zjJXZ8bYA9Y-88" style="edgeStyle=orthogonalEdgeStyle;rounded=0;orthogonalLoop=1;jettySize=auto;html=1;" edge="1" parent="1" source="sw-TKwQO3zjJXZ8bYA9Y-84">
          <mxGeometry relative="1" as="geometry">
            <mxPoint x="780" y="520" as="targetPoint" />
          </mxGeometry>
        </mxCell>
        <mxCell id="sw-TKwQO3zjJXZ8bYA9Y-84" value="É domingo?" style="rounded=1;whiteSpace=wrap;html=1;" vertex="1" parent="1">
          <mxGeometry x="650" y="470" width="90" height="40" as="geometry" />
        </mxCell>
        <mxCell id="sw-TKwQO3zjJXZ8bYA9Y-98" style="edgeStyle=orthogonalEdgeStyle;rounded=0;orthogonalLoop=1;jettySize=auto;html=1;" edge="1" parent="1" source="sw-TKwQO3zjJXZ8bYA9Y-86">
          <mxGeometry relative="1" as="geometry">
            <mxPoint x="410" y="840" as="targetPoint" />
            <Array as="points">
              <mxPoint x="780" y="685" />
              <mxPoint x="540" y="685" />
              <mxPoint x="540" y="810" />
            </Array>
          </mxGeometry>
        </mxCell>
        <mxCell id="sw-TKwQO3zjJXZ8bYA9Y-86" value="Estudar e ler" style="rounded=1;whiteSpace=wrap;html=1;" vertex="1" parent="1">
          <mxGeometry x="740" y="520" width="80" height="40" as="geometry" />
        </mxCell>
        <mxCell id="sw-TKwQO3zjJXZ8bYA9Y-95" style="edgeStyle=orthogonalEdgeStyle;rounded=0;orthogonalLoop=1;jettySize=auto;html=1;entryX=0.5;entryY=0;entryDx=0;entryDy=0;" edge="1" parent="1" source="sw-TKwQO3zjJXZ8bYA9Y-89" target="sw-TKwQO3zjJXZ8bYA9Y-94">
          <mxGeometry relative="1" as="geometry">
            <Array as="points">
              <mxPoint x="410" y="840" />
              <mxPoint x="410" y="840" />
            </Array>
          </mxGeometry>
        </mxCell>
        <mxCell id="sw-TKwQO3zjJXZ8bYA9Y-89" value="Assistir filmes" style="rounded=1;whiteSpace=wrap;html=1;" vertex="1" parent="1">
          <mxGeometry x="370" y="530" width="100" height="40" as="geometry" />
        </mxCell>
        <mxCell id="sw-TKwQO3zjJXZ8bYA9Y-101" style="edgeStyle=orthogonalEdgeStyle;rounded=0;orthogonalLoop=1;jettySize=auto;html=1;entryX=0.5;entryY=0;entryDx=0;entryDy=0;" edge="1" parent="1" source="sw-TKwQO3zjJXZ8bYA9Y-94" target="sw-TKwQO3zjJXZ8bYA9Y-99">
          <mxGeometry relative="1" as="geometry" />
        </mxCell>
        <mxCell id="sw-TKwQO3zjJXZ8bYA9Y-102" style="edgeStyle=orthogonalEdgeStyle;rounded=0;orthogonalLoop=1;jettySize=auto;html=1;entryX=0.5;entryY=0;entryDx=0;entryDy=0;" edge="1" parent="1" source="sw-TKwQO3zjJXZ8bYA9Y-94" target="sw-TKwQO3zjJXZ8bYA9Y-100">
          <mxGeometry relative="1" as="geometry" />
        </mxCell>
        <mxCell id="sw-TKwQO3zjJXZ8bYA9Y-94" value="Sua filha o convidou pra jantar?" style="rounded=1;whiteSpace=wrap;html=1;" vertex="1" parent="1">
          <mxGeometry x="350" y="840" width="120" height="60" as="geometry" />
        </mxCell>
        <mxCell id="sw-TKwQO3zjJXZ8bYA9Y-104" style="edgeStyle=orthogonalEdgeStyle;rounded=0;orthogonalLoop=1;jettySize=auto;html=1;entryX=0.5;entryY=0;entryDx=0;entryDy=0;" edge="1" parent="1" source="sw-TKwQO3zjJXZ8bYA9Y-99" target="sw-TKwQO3zjJXZ8bYA9Y-103">
          <mxGeometry relative="1" as="geometry" />
        </mxCell>
        <mxCell id="sw-TKwQO3zjJXZ8bYA9Y-99" value="Sim" style="rounded=1;whiteSpace=wrap;html=1;" vertex="1" parent="1">
          <mxGeometry x="224.38" y="920" width="83.75" height="40" as="geometry" />
        </mxCell>
        <mxCell id="sw-TKwQO3zjJXZ8bYA9Y-106" style="edgeStyle=orthogonalEdgeStyle;rounded=0;orthogonalLoop=1;jettySize=auto;html=1;entryX=0.5;entryY=0;entryDx=0;entryDy=0;" edge="1" parent="1" source="sw-TKwQO3zjJXZ8bYA9Y-100" target="sw-TKwQO3zjJXZ8bYA9Y-105">
          <mxGeometry relative="1" as="geometry" />
        </mxCell>
        <mxCell id="sw-TKwQO3zjJXZ8bYA9Y-100" value="Não" style="rounded=1;whiteSpace=wrap;html=1;" vertex="1" parent="1">
          <mxGeometry x="504.38" y="920" width="85.62" height="40" as="geometry" />
        </mxCell>
        <mxCell id="sw-TKwQO3zjJXZ8bYA9Y-108" style="edgeStyle=orthogonalEdgeStyle;rounded=0;orthogonalLoop=1;jettySize=auto;html=1;" edge="1" parent="1" source="sw-TKwQO3zjJXZ8bYA9Y-103" target="sw-TKwQO3zjJXZ8bYA9Y-107">
          <mxGeometry relative="1" as="geometry" />
        </mxCell>
        <mxCell id="sw-TKwQO3zjJXZ8bYA9Y-103" value="Sai com a filha para comer" style="rounded=1;whiteSpace=wrap;html=1;" vertex="1" parent="1">
          <mxGeometry x="160" y="1010" width="100" height="50" as="geometry" />
        </mxCell>
        <mxCell id="sw-TKwQO3zjJXZ8bYA9Y-109" style="edgeStyle=orthogonalEdgeStyle;rounded=0;orthogonalLoop=1;jettySize=auto;html=1;" edge="1" parent="1" source="sw-TKwQO3zjJXZ8bYA9Y-105">
          <mxGeometry relative="1" as="geometry">
            <mxPoint x="410" y="1100" as="targetPoint" />
          </mxGeometry>
        </mxCell>
        <mxCell id="sw-TKwQO3zjJXZ8bYA9Y-105" value="Jantar em casa" style="rounded=1;whiteSpace=wrap;html=1;" vertex="1" parent="1">
          <mxGeometry x="560" y="1010" width="100" height="50" as="geometry" />
        </mxCell>
        <mxCell id="sw-TKwQO3zjJXZ8bYA9Y-111" style="edgeStyle=orthogonalEdgeStyle;rounded=0;orthogonalLoop=1;jettySize=auto;html=1;" edge="1" parent="1" source="sw-TKwQO3zjJXZ8bYA9Y-107" target="sw-TKwQO3zjJXZ8bYA9Y-110">
          <mxGeometry relative="1" as="geometry" />
        </mxCell>
        <mxCell id="sw-TKwQO3zjJXZ8bYA9Y-107" value="Tomar banho 21h" style="rounded=1;whiteSpace=wrap;html=1;" vertex="1" parent="1">
          <mxGeometry x="360" y="1100" width="100" height="50" as="geometry" />
        </mxCell>
        <mxCell id="sw-TKwQO3zjJXZ8bYA9Y-113" style="edgeStyle=orthogonalEdgeStyle;rounded=0;orthogonalLoop=1;jettySize=auto;html=1;entryX=0.5;entryY=0;entryDx=0;entryDy=0;" edge="1" parent="1" source="sw-TKwQO3zjJXZ8bYA9Y-110" target="sw-TKwQO3zjJXZ8bYA9Y-112">
          <mxGeometry relative="1" as="geometry" />
        </mxCell>
        <mxCell id="sw-TKwQO3zjJXZ8bYA9Y-115" style="edgeStyle=orthogonalEdgeStyle;rounded=0;orthogonalLoop=1;jettySize=auto;html=1;entryX=0.5;entryY=0;entryDx=0;entryDy=0;" edge="1" parent="1" source="sw-TKwQO3zjJXZ8bYA9Y-110" target="sw-TKwQO3zjJXZ8bYA9Y-114">
          <mxGeometry relative="1" as="geometry" />
        </mxCell>
        <mxCell id="sw-TKwQO3zjJXZ8bYA9Y-110" value="Está cansado?" style="rounded=1;whiteSpace=wrap;html=1;" vertex="1" parent="1">
          <mxGeometry x="360" y="1200" width="100" height="50" as="geometry" />
        </mxCell>
        <mxCell id="sw-TKwQO3zjJXZ8bYA9Y-122" style="edgeStyle=orthogonalEdgeStyle;rounded=0;orthogonalLoop=1;jettySize=auto;html=1;entryX=0.5;entryY=0;entryDx=0;entryDy=0;" edge="1" parent="1" source="sw-TKwQO3zjJXZ8bYA9Y-112" target="sw-TKwQO3zjJXZ8bYA9Y-118">
          <mxGeometry relative="1" as="geometry" />
        </mxCell>
        <mxCell id="sw-TKwQO3zjJXZ8bYA9Y-112" value="Sim" style="rounded=1;whiteSpace=wrap;html=1;" vertex="1" parent="1">
          <mxGeometry x="216.26" y="1260" width="100" height="50" as="geometry" />
        </mxCell>
        <mxCell id="sw-TKwQO3zjJXZ8bYA9Y-125" style="edgeStyle=orthogonalEdgeStyle;rounded=0;orthogonalLoop=1;jettySize=auto;html=1;entryX=0.43;entryY=0.033;entryDx=0;entryDy=0;entryPerimeter=0;" edge="1" parent="1" source="sw-TKwQO3zjJXZ8bYA9Y-114" target="sw-TKwQO3zjJXZ8bYA9Y-117">
          <mxGeometry relative="1" as="geometry" />
        </mxCell>
        <mxCell id="sw-TKwQO3zjJXZ8bYA9Y-114" value="Não" style="rounded=1;whiteSpace=wrap;html=1;" vertex="1" parent="1">
          <mxGeometry x="504.38" y="1260" width="103.74" height="50" as="geometry" />
        </mxCell>
        <mxCell id="sw-TKwQO3zjJXZ8bYA9Y-116" value="Dormir" style="rounded=1;whiteSpace=wrap;html=1;" vertex="1" parent="1">
          <mxGeometry x="515" y="1430" width="100" height="40" as="geometry" />
        </mxCell>
        <mxCell id="sw-TKwQO3zjJXZ8bYA9Y-126" style="edgeStyle=orthogonalEdgeStyle;rounded=0;orthogonalLoop=1;jettySize=auto;html=1;entryX=0.5;entryY=0;entryDx=0;entryDy=0;" edge="1" parent="1" source="sw-TKwQO3zjJXZ8bYA9Y-117" target="sw-TKwQO3zjJXZ8bYA9Y-116">
          <mxGeometry relative="1" as="geometry" />
        </mxCell>
        <mxCell id="sw-TKwQO3zjJXZ8bYA9Y-117" value="Assistir um pouco de televisão" style="rounded=1;whiteSpace=wrap;html=1;" vertex="1" parent="1">
          <mxGeometry x="510" y="1345" width="110" height="50" as="geometry" />
        </mxCell>
        <mxCell id="sw-TKwQO3zjJXZ8bYA9Y-118" value="Dormir" style="rounded=1;whiteSpace=wrap;html=1;" vertex="1" parent="1">
          <mxGeometry x="216.26" y="1355" width="100" height="40" as="geometry" />
        </mxCell>
      </root>
    </mxGraphModel>
  </diagram>
</mxfile>
